<?xml version="1.0" encoding="UTF-8" standalone="no"?>
<!-- Created with Inkscape (http://www.inkscape.org/) -->

<svg
   width="512"
   height="512"
   viewBox="0 0 135.46666 135.46667"
   version="1.1"
   id="svg1"
   xml:space="preserve"
   inkscape:version="1.3.2 (091e20e, 2023-11-25, custom)"
   sodipodi:docname="piggy-bw.svg"
   xmlns:inkscape="http://www.inkscape.org/namespaces/inkscape"
   xmlns:sodipodi="http://sodipodi.sourceforge.net/DTD/sodipodi-0.dtd"
   xmlns="http://www.w3.org/2000/svg"
   xmlns:svg="http://www.w3.org/2000/svg"><sodipodi:namedview
     id="namedview1"
     pagecolor="#ffffff"
     bordercolor="#999999"
     borderopacity="1"
     inkscape:showpageshadow="2"
     inkscape:pageopacity="0"
     inkscape:pagecheckerboard="0"
     inkscape:deskcolor="#d1d1d1"
     inkscape:document-units="mm"
     inkscape:zoom="1.4778115"
     inkscape:cx="156.65056"
     inkscape:cy="202.66455"
     inkscape:window-width="2560"
     inkscape:window-height="1369"
     inkscape:window-x="-8"
     inkscape:window-y="-8"
     inkscape:window-maximized="1"
     inkscape:current-layer="layer1" /><defs
     id="defs1"><filter
       style="color-interpolation-filters:sRGB;"
       inkscape:label="Lightness-Contrast"
       id="filter1"
       x="0"
       y="0"
       width="1"
       height="1"><feColorMatrix
         values="0.21 0.72 0.072 0 0 0.21 0.72 0.072 0 0 0.21 0.72 0.072 0 0 0 0 0 1 0 "
         id="feColorMatrix1"
         result="fbSourceGraphic" /><feColorMatrix
         result="fbSourceGraphicAlpha"
         in="fbSourceGraphic"
         values="0 0 0 -1 0 0 0 0 -1 0 0 0 0 -1 0 0 0 0 1 0"
         id="feColorMatrix2" /><feColorMatrix
         id="feColorMatrix3"
         values="0.21 0.72 0.072 0 0 0.21 0.72 0.072 0 0 0.21 0.72 0.072 0 0 0 0 0 1 0 "
         in="fbSourceGraphic"
         result="fbSourceGraphic" /><feColorMatrix
         result="fbSourceGraphicAlpha"
         in="fbSourceGraphic"
         values="0 0 0 -1 0 0 0 0 -1 0 0 0 0 -1 0 0 0 0 1 0"
         id="feColorMatrix16" /><feColorMatrix
         id="feColorMatrix17"
         values="1 0 0 0.202492 -0 0 1 0 0.202492 -0 0 0 1 0.202492 -0 0 0 0 1 0"
         in="fbSourceGraphic" /></filter></defs><g
     inkscape:label="Vrstva 1"
     inkscape:groupmode="layer"
     id="layer1"><g
       id="g175"
       transform="matrix(0.74290684,0,0,0.74290684,-10.379133,-17.699131)"
       style="filter:url(#filter1)"><g
         id="g129"
         transform="translate(222.25008)"
         style="fill:#fccbbb;fill-opacity:1"><path
           style="font-variation-settings:normal;vector-effect:none;fill:#fccbbb;fill-opacity:1;stroke-width:1;stroke-linecap:butt;stroke-linejoin:miter;stroke-miterlimit:4;stroke-dasharray:none;stroke-dashoffset:0;stroke-opacity:1;-inkscape-stroke:none;stop-color:#000000"
           d="m -45.236824,108.07572 c 6.839957,-2.07232 11.724414,-7.02823 11.320224,-11.485811 -0.30363,-3.348354 -1.6397,-5.151861 -7.037767,-9.49992 -4.236287,-3.412251 -4.993087,-4.168152 -8.104104,-8.094389 -5.634237,-7.110667 -8.810688,-8.280302 -15.828051,-5.828238 -3.10832,1.086131 -3.325291,1.327367 -2.23058,2.479977 5.795797,6.102303 13.592544,19.187163 17.800011,29.872741 0.70191,1.78263 1.398026,3.24115 1.546916,3.24115 0.14891,0 1.288911,-0.30848 2.533351,-0.68551 z"
           id="path128" /><path
           style="font-variation-settings:normal;vector-effect:none;fill:#fccbbb;fill-opacity:1;stroke-width:1;stroke-linecap:butt;stroke-linejoin:miter;stroke-miterlimit:4;stroke-dasharray:none;stroke-dashoffset:0;stroke-opacity:1;-inkscape-stroke:none;stop-color:#000000"
           d="m -185.56764,107.37216 c 3.02667,-9.211994 12.33401,-25.224538 18.26904,-31.430423 1.20819,-1.263331 1.14451,-1.495532 -0.62506,-2.279244 -7.29094,-3.229021 -11.5169,-2.051236 -16.72741,4.661975 -3.22044,4.149208 -5.55044,6.552556 -8.47418,8.740945 -10.65581,7.97576 -9.09177,16.510437 3.83646,20.934777 3.05978,1.04713 3.17728,1.0273 3.72115,-0.62803 z"
           id="path127" /><path
           style="font-variation-settings:normal;vector-effect:none;fill:#fccbbb;fill-opacity:1;stroke-width:1;stroke-linecap:butt;stroke-linejoin:miter;stroke-miterlimit:4;stroke-dasharray:none;stroke-dashoffset:0;stroke-opacity:1;-inkscape-stroke:none;stop-color:#000000"
           d="m -104.35748,187.3454 c 50.003392,-6.60152 68.33464,-49.7073 40.605204,-95.482708 C -87.74804,52.2508 -142.73756,50.477621 -168.23569,88.493546 c -36.65595,54.651444 -2.43612,107.606764 63.87821,98.851854 z"
           id="path120" /></g><path
         id="path94"
         style="fill:#ffffff;fill-opacity:1"
         d="m 104.57366,63.465207 c -5.189885,-0.01387 -10.164465,0.519496 -12.91859,1.60507 -0.726139,0.286219 -1.967188,0.639815 -2.757968,0.785999 -0.79078,0.146184 -2.22951,0.632125 -3.19722,1.080037 -0.96773,0.447914 -1.84914,0.814421 -1.95854,0.814421 -0.4272,0 -6.65146,3.286866 -8.29562,4.380611 -5.2302,3.479282 -10.61418,8.44452 -10.6066,9.781832 0.0128,2.255982 1.75212,2.624877 3.61115,0.765845 6.60908,-6.609073 25.280837,-12.425738 38.353218,-11.948108 13.11649,0.47924 28.45695,5.582914 34.90173,11.611694 1.73545,1.623426 2.28041,1.813841 3.24838,1.135848 1.76765,-1.238107 -1.05327,-4.797363 -7.72356,-9.745658 -3.53367,-2.621421 -13.89587,-7.834147 -15.5732,-7.834147 -0.21562,0 -1.5077,-0.340147 -2.87166,-0.756027 -3.6162,-1.102601 -9.02164,-1.663544 -14.21152,-1.677417 z m 0.32608,60.008223 c -7.152985,0.026 -14.237988,2.7035 -17.608748,8.01863 -1.14301,1.80234 -0.91878,1.81125 1.0139,0.0403 4.736241,-4.33991 15.514978,-6.25323 24.738018,-4.39095 3.44436,0.69548 8.66874,3.54966 10.05157,5.49166 0.35276,0.4954 0.63232,0.69364 0.69867,0.49454 0.0609,-0.18265 -0.33353,-0.977 -0.87644,-1.76527 -3.64307,-5.28958 -10.86399,-7.91497 -18.01697,-7.88892 z"
         sodipodi:nodetypes="ssssssssssssssssssssscs"
         inkscape:label="svetlo" /><path
         id="path111"
         style="fill:#faa291"
         inkscape:label="stin0"
         d="m 56.773982,128.47829 c -11.91243,-0.0247 -14.4738,16.2121 -3.21738,20.39566 2.00005,0.74334 3.49024,0.78094 5.78105,0.14573 11.82013,-3.27763 9.66867,-20.51599 -2.56367,-20.54139 z" /><path
         id="path110"
         style="fill:#faa291"
         inkscape:label="stin0"
         d="m 105.6909,123.2476 c -3.6635,-0.0408 -7.377815,0.31572 -9.626275,1.08624 -17.297423,5.92763 -14.568083,28.82475 3.66489,30.74593 3.210155,0.33825 12.071515,0.0773 13.929895,-0.41031 15.47643,-4.06063 16.37617,-24.11013 1.35185,-30.12478 -2.04412,-0.81832 -5.65685,-1.25628 -9.32036,-1.29708 z m -0.44132,0.0563 c 8.24323,-0.0116 16.45167,3.49669 19.21122,10.53218 0.78989,2.01382 0.56392,2.48171 -0.4625,0.95756 -0.49817,-0.73974 -1.64254,-2.01182 -2.543,-2.8267 -8.47358,-7.66815 -28.897662,-6.35683 -34.684688,2.22674 -0.52765,0.78264 -1.08936,1.66078 -1.2485,1.95182 -0.57053,1.04337 -0.33235,-0.69755 0.30851,-2.25516 2.89793,-7.04346 11.175743,-10.57483 19.418958,-10.58644 z" /><path
         style="fill:#faa291"
         d="m 153.68381,128.36357 c -3.72948,-0.10231 -7.44588,1.79483 -9.39528,5.73919 -3.02068,6.11194 0.49351,13.58554 7.06675,15.02905 8.42582,1.85036 15.55633,-6.91592 11.8034,-14.51126 -2.00252,-4.05277 -5.74539,-6.15466 -9.47487,-6.25698 z"
         id="path175" /><path
         style="fill:#faa291"
         d="m 103.80471,115.97673 c -15.442898,0.56344 -27.170208,10.87068 -26.446448,25.32817 0.59944,11.97417 8.94678,22.256 20.161563,24.83363 1.30969,0.30102 2.619375,0.60351 2.910415,0.67231 8.20797,1.94161 21.17151,-2.50538 26.44282,-9.07077 11.79145,-14.68616 5.50325,-36.11881 -11.89074,-40.52827 -3.85214,-0.97654 -7.61386,-1.36509 -11.17761,-1.23507 z m 0.79117,0.35657 c 15.75675,-0.28193 27.98122,9.40933 27.98122,23.42906 0,16.04111 -14.08789,25.26536 -34.282125,22.44669 -27.118833,-3.78519 -27.632483,-39.84524 -0.64285,-45.12748 2.369795,-0.4638 4.692785,-0.708 6.943755,-0.74827 z"
         id="path108" /><path
         id="path103"
         style="fill:#faa291"
         inkscape:label="stin0"
         d="m 162.00475,72.043495 c -1.37265,0.124064 -2.88672,0.510947 -4.64106,1.123963 -3.10832,1.086129 -3.32558,1.327343 -2.23088,2.479951 5.7958,6.102297 13.59248,19.187031 17.79994,29.872601 0.70191,1.78262 1.3983,3.24114 1.54719,3.24114 0.14891,0 1.28874,-0.3082 2.53318,-0.68523 6.83996,-2.07232 11.72442,-7.02854 11.32023,-11.48612 -0.30363,-3.34835 -1.63974,-5.151623 -7.0378,-9.499678 -4.23629,-3.412248 -4.99288,-4.168363 -8.1039,-8.094596 -4.22568,-5.332995 -7.06897,-7.324223 -11.1869,-6.952031 z m 1.43092,0.501778 c 2.41707,0.03109 5.26675,1.621306 7.5525,4.375961 0.82603,0.995497 2.45347,2.953288 3.61683,4.350638 1.4726,1.768801 3.30732,3.504906 6.03891,5.714897 7.56288,6.118756 9.35082,10.383621 6.01461,14.348481 -0.80004,0.95078 -1.44625,1.00153 -3.49125,0.27492 -5.22509,-1.856525 -11.48878,-7.480777 -17.81854,-16.000061 -0.75685,-1.018644 -2.21906,-2.923647 -3.24942,-4.233333 -3.619,-4.600125 -3.85553,-6.787505 -0.89968,-8.328174 0.67271,-0.350638 1.43034,-0.513693 2.23604,-0.503329 z" /><path
         id="path102"
         style="fill:#faa291"
         inkscape:label="stin0"
         d="m 47.203492,71.94841 c -3.47603,0.146748 -6.34802,2.180086 -9.60458,6.375839 -3.22044,4.149204 -5.55017,6.552681 -8.47391,8.741068 -10.65579,7.975752 -9.09174,16.510303 3.83646,20.934633 3.05978,1.04713 3.17684,1.02746 3.72071,-0.62787 3.02666,-9.211974 12.33416,-25.224236 18.26918,-31.430115 1.20819,-1.26333 1.1448,-1.495736 -0.62477,-2.279447 -2.7341,-1.210882 -5.03746,-1.802156 -7.12309,-1.714108 z m -1.06143,0.800985 c 3.14282,-0.09368 4.94337,1.178987 4.94337,3.493844 0,1.395913 -0.33796,2.051575 -2.37246,4.60437 -0.57988,0.727603 -1.61531,2.089691 -2.30064,3.026689 -6.74376,9.22021 -13.46037,15.47939 -18.72342,17.448552 -3.10762,1.16271 -3.56672,1.05368 -4.71806,-1.1219 -2.06084,-3.894194 -0.15641,-7.824309 6.15415,-12.7 3.05155,-2.357701 6.27449,-5.581946 8.32921,-8.332308 3.70122,-4.954292 5.5578,-6.325947 8.68785,-6.419247 z"
         sodipodi:nodetypes="sssssssssssssssss" /><path
         id="path101"
         style="fill:#faa291"
         inkscape:label="stin0"
         d="M 103.08124,61.060703 C 84.398702,61.596105 65.966682,70.673707 54.014452,88.493654 17.358572,143.14504 51.578492,196.1004 117.89273,187.3455 167.8961,180.74399 186.22741,137.6378 158.49798,91.86244 145.75024,70.818644 124.25477,60.453914 103.08124,61.060703 Z m -0.72295,0.681612 c 1.71392,-0.05237 3.45286,-0.03939 5.2157,0.03876 25.80161,1.143811 44.43843,14.606866 56.06011,40.497785 4.64916,10.35743 5.63356,16.05196 4.89273,28.29646 -1.53142,25.31057 -20.27196,42.6732 -51.03097,47.27825 -4.25792,0.63747 -17.555779,0.94327 -20.902075,0.48059 -16.993413,-2.34957 -26.411323,-5.88641 -37.566713,-14.10766 -15.79782,-11.64261 -22.1131,-38.30646 -13.85446,-58.49514 11.37561,-27.808281 31.47689,-43.203568 57.185678,-43.989045 z" /><path
         style="font-variation-settings:normal;opacity:1;vector-effect:none;fill:#1f2047;fill-opacity:1;stroke-width:1;stroke-linecap:butt;stroke-linejoin:miter;stroke-miterlimit:4;stroke-dasharray:none;stroke-dashoffset:0;stroke-opacity:1;-inkscape-stroke:none;stop-color:#000000;stop-opacity:1"
         d="m 95.932135,195.01127 c -45.664313,-4.86226 -71.072403,-35.84491 -62.312053,-75.98336 0.2925,-1.34019 0.53182,-2.57446 0.53182,-2.74284 0,-0.16838 -0.98227,-0.63552 -2.18282,-1.03808 -10.55876,-3.54053 -17.29273,-11.18445 -16.78528,-19.053474 0.36231,-5.618321 2.8058,-9.279879 9.70767,-14.546888 3.01188,-2.298443 4.55214,-3.895924 7.14798,-7.413527 7.34382,-9.951532 16.93957,-12.046494 27.20449,-5.939334 1.21307,0.72172 2.34416,1.227642 2.51354,1.12427 0.16939,-0.103371 1.43906,-1.041127 2.82152,-2.083902 7.06069,-5.325852 16.82376,-9.682393 25.13542,-11.216095 4.114309,-0.75919 4.233339,-0.818139 4.233339,-2.096616 0,-8.917806 8.676039,-15.536477 15.798179,-12.051932 4.81025,2.353435 4.73599,9.906166 -0.10192,10.366161 -2.00543,0.190679 -3.52544,-1.387764 -3.52544,-3.660963 0,-2.717617 -4.77248,0.85962 -5.25981,3.942526 -0.30803,1.948558 -0.22944,2.001592 2.65042,1.788642 1.37438,-0.101629 4.24386,-0.04628 6.44586,0.124323 2.18281,0.169121 4.2664,0.325683 4.6302,0.347915 0.56748,0.03468 0.79302,-0.22206 1.5875,-1.807094 2.35438,-4.697158 0.55264,-9.234153 -4.72193,-11.890388 -5.50958,-2.774581 -2.33015,-8.755494 3.26672,-6.14513 7.17478,3.346297 10.85896,11.629381 8.37625,18.832212 -0.94182,2.732445 -0.97095,2.624002 0.81721,3.043533 7.24408,1.699588 16.32649,6.10326 23.0067,11.154954 2.03765,1.54092 2.03765,1.54092 4.6302,0.09622 10.6188,-5.917379 19.34208,-3.895558 26.76324,6.202994 2.64065,3.593347 3.77898,4.746197 7.41916,7.513737 14.99272,11.398615 11.63995,27.078386 -7.10797,33.241486 -2.70213,0.88829 -2.56297,0.51881 -1.75639,4.6633 8.97389,46.1103 -28.37299,80.82396 -80.933805,75.22736 z m 21.960405,-7.66587 c 50.00342,-6.60152 68.33468,-49.7073 40.60523,-95.482708 C 134.50199,52.2508 79.512472,50.477621 54.014362,88.493546 17.358432,143.14499 51.578242,196.10031 117.89254,187.3454 Z M 98.294935,162.20914 c -27.118863,-3.78519 -27.632673,-39.84557 -0.64301,-45.12781 18.958445,-3.71043 34.924975,6.65867 34.924975,22.68123 0,16.04113 -14.08771,25.26525 -34.281965,22.44658 z m 15.364285,-7.53978 c 15.47645,-4.06063 16.37615,-24.10995 1.35182,-30.1246 -4.08824,-1.63664 -14.44969,-1.75201 -18.946615,-0.21097 -17.297433,5.92763 -14.568153,28.82482 3.66484,30.746 3.210165,0.33825 12.071575,0.0772 13.929955,-0.41043 z m -18.001606,-8.9055 c -2.948073,-0.77602 -3.807363,-10.54246 -1.126073,-12.79862 1.949074,-1.64003 4.971604,-0.35793 5.366653,2.27642 1.057856,7.05435 -0.713849,11.45054 -4.24058,10.5222 z m 15.976006,-0.5576 c -1.17805,-0.99584 -1.28169,-1.49282 -1.28169,-6.14599 0,-6.26856 1.51024,-8.17288 5.03573,-6.34977 2.41267,1.24764 2.36578,11.38897 -0.0589,12.73445 -1.01523,0.56337 -2.88958,0.4423 -3.69517,-0.23869 z M 67.886292,124.00493 c -6.38408,-1.55249 -9.73896,-8.66863 -6.87855,-14.59029 3.14328,-6.50729 11.55488,-7.92633 16.38369,-2.76394 6.86038,7.3343 0.0938,19.68852 -9.50514,17.35423 z m 70.683558,0.0892 c -8.72212,-1.46352 -11.36283,-13.71259 -4.0421,-18.7494 9.93806,-6.837562 21.34842,6.53819 13.25582,15.53909 -1.66257,1.8492 -5.66718,3.65253 -7.66604,3.45213 -0.14553,-0.0146 -0.84199,-0.12341 -1.54768,-0.24182 z M 36.682422,107.37216 c 3.02666,-9.211994 12.334,-25.224538 18.26903,-31.430423 1.20819,-1.263331 1.14451,-1.495532 -0.62506,-2.279244 -7.29094,-3.229021 -11.51689,-2.051236 -16.7274,4.661975 -3.22044,4.149208 -5.55044,6.552556 -8.47418,8.740945 -10.6558,7.97576 -9.09176,16.510437 3.83646,20.934777 3.05978,1.04713 3.17728,1.0273 3.72115,-0.62803 z m 140.330808,0.70356 c 6.83996,-2.07232 11.72442,-7.02823 11.32023,-11.485811 -0.30363,-3.348354 -1.6397,-5.151861 -7.03777,-9.49992 -4.23629,-3.412251 -4.99309,-4.168152 -8.10411,-8.094389 -5.63424,-7.110667 -8.81069,-8.280302 -15.82806,-5.828238 -3.10832,1.086131 -3.32529,1.327367 -2.23058,2.479977 5.7958,6.102303 13.59255,19.187163 17.80002,29.872741 0.70191,1.78263 1.39803,3.24115 1.54692,3.24115 0.14891,0 1.28891,-0.30848 2.53335,-0.68551 z"
         id="path87"
         inkscape:label="obrys" /><ellipse
         style="font-variation-settings:normal;opacity:1;vector-effect:none;fill:#ffffff;fill-opacity:1;stroke-width:0.830198;stroke-linecap:butt;stroke-linejoin:miter;stroke-miterlimit:4;stroke-dasharray:none;stroke-dashoffset:0;stroke-opacity:1;-inkscape-stroke:none"
         id="path174"
         cx="67.82254"
         cy="111.71739"
         rx="4.0852761"
         ry="3.9369564" /><ellipse
         style="font-variation-settings:normal;vector-effect:none;fill:#ffffff;fill-opacity:1;stroke-width:0.830198;stroke-linecap:butt;stroke-linejoin:miter;stroke-miterlimit:4;stroke-dasharray:none;stroke-dashoffset:0;stroke-opacity:1;-inkscape-stroke:none"
         id="path174-8"
         cx="138.69151"
         cy="112.23394"
         rx="4.0852761"
         ry="3.9369564" /></g></g></svg>
